<svg xmlns="http://www.w3.org/2000/svg" width="42.526" height="39.564" viewBox="0 0 42.526 39.564">
  <g id="Сгруппировать_413" data-name="Сгруппировать 413" transform="translate(-12.498 -11.069)">
    <path id="Вычитание_2" data-name="Вычитание 2" d="M11.608,32.281A11.609,11.609,0,0,1,0,20.673V11.387A11.613,11.613,0,0,1,9.339,0a2.869,2.869,0,0,0-.633,1.81V8.122a2.9,2.9,0,0,0,1.959,2.746v5.307a.943.943,0,0,0,1.886,0V10.868A2.9,2.9,0,0,0,14.51,8.122V1.81A2.871,2.871,0,0,0,13.877,0a11.612,11.612,0,0,1,9.339,11.387v9.286A11.608,11.608,0,0,1,11.608,32.281Z" transform="translate(34.918 11.069) rotate(30)" fill="#1e1e1e"/>
    <rect id="Прямоугольник_88" data-name="Прямоугольник 88" width="2.467" height="5.296" rx="1.233" transform="translate(42.745 18.263) rotate(30)" fill="#1e1e1e"/>
    <rect id="Прямоугольник_89" data-name="Прямоугольник 89" width="10" height="1" rx="0.5" transform="translate(18.498 16.963)" fill="#1e1e1e"/>
    <rect id="Прямоугольник_90" data-name="Прямоугольник 90" width="13" height="1" rx="0.5" transform="translate(12.498 21.963)" fill="#1e1e1e"/>
    <rect id="Прямоугольник_91" data-name="Прямоугольник 91" width="7" height="1" rx="0.5" transform="translate(15.498 26.963)" fill="#1e1e1e"/>
  </g>
</svg>
