<svg xmlns="http://www.w3.org/2000/svg" width="207.474" height="190.53" viewBox="0 0 207.474 190.53">
  <g id="Сгруппировать_413" data-name="Сгруппировать 413" transform="translate(-421.879 -225.425)">
    <path id="Вычитание_1" data-name="Вычитание 1" d="M55.9,155.456A55.855,55.855,0,0,1,0,99.554V54.834A55.905,55.905,0,0,1,44.976,0a13.825,13.825,0,0,0-3.05,8.716v30.4a13.98,13.98,0,0,0,9.434,13.222v25.56a4.542,4.542,0,0,0,9.084,0V52.332a13.979,13.979,0,0,0,9.433-13.221V8.716A13.826,13.826,0,0,0,66.826,0a55.428,55.428,0,0,1,17.846,6.9A55.814,55.814,0,0,1,111.8,54.834v44.72a55.854,55.854,0,0,1-55.9,55.9Z" transform="translate(532.53 225.425) rotate(30)" fill="#fff"/>
    <rect id="Прямоугольник_66" data-name="Прямоугольник 66" width="11.879" height="25.505" rx="5.939" transform="translate(570.217 260.072) rotate(30)" fill="#fff"/>
    <rect id="Прямоугольник_67" data-name="Прямоугольник 67" width="50" height="12" rx="6" transform="translate(453.879 250.227)" fill="#fff"/>
    <rect id="Прямоугольник_68" data-name="Прямоугольник 68" width="65" height="12" rx="6" transform="translate(421.879 274.227)" fill="#fff"/>
    <rect id="Прямоугольник_69" data-name="Прямоугольник 69" width="33" height="12" rx="6" transform="translate(436.879 298.227)" fill="#fff"/>
  </g>
</svg>
