<svg xmlns="http://www.w3.org/2000/svg" width="80.704" height="74.641" viewBox="0 0 80.704 74.641">
  <g id="Сгруппировать_413" data-name="Сгруппировать 413" transform="translate(-23.105 -20.882)">
    <path id="Вычитание_2" data-name="Вычитание 2" d="M21.9,60.9A21.9,21.9,0,0,1,0,39V21.482A21.907,21.907,0,0,1,17.62,0a5.415,5.415,0,0,0-1.195,3.414V15.323a5.477,5.477,0,0,0,3.7,5.179V30.515a1.779,1.779,0,1,0,3.559,0V20.5a5.474,5.474,0,0,0,3.7-5.179V3.415A5.415,5.415,0,0,0,26.179,0,21.88,21.88,0,0,1,43.8,21.482V39A21.9,21.9,0,0,1,21.9,60.9Z" transform="translate(65.877 20.882) rotate(30)" fill="#fff"/>
    <rect id="Прямоугольник_88" data-name="Прямоугольник 88" width="4.654" height="9.992" rx="2.327" transform="translate(80.641 34.456) rotate(30)" fill="#fff"/>
    <rect id="Прямоугольник_89" data-name="Прямоугольник 89" width="18" height="3" rx="1.5" transform="translate(35.105 33)" fill="#fff"/>
    <rect id="Прямоугольник_90" data-name="Прямоугольник 90" width="25" height="3" rx="1.5" transform="translate(23.105 42)" fill="#fff"/>
    <rect id="Прямоугольник_91" data-name="Прямоугольник 91" width="11" height="3" rx="1.5" transform="translate(30.105 51)" fill="#fff"/>
  </g>
</svg>
